<mxfile host="app.diagrams.net" modified="2023-12-10T13:53:17.198Z" agent="Mozilla/5.0 (X11; Linux x86_64) AppleWebKit/537.36 (KHTML, like Gecko) Chrome/120.0.0.0 Safari/537.36" etag="joDBZVoFVuS4yTLe6tMT" version="22.1.7" type="github">
  <diagram name="Page-1" id="_3Kexro8jyEhFh9ByhMr">
    <mxGraphModel dx="3620" dy="2803" grid="1" gridSize="10" guides="1" tooltips="1" connect="1" arrows="1" fold="1" page="1" pageScale="1" pageWidth="850" pageHeight="1100" math="0" shadow="0">
      <root>
        <mxCell id="0" />
        <mxCell id="1" parent="0" />
        <mxCell id="mVHBGagMHQVWid7Squ9W-38" style="edgeStyle=orthogonalEdgeStyle;rounded=0;orthogonalLoop=1;jettySize=auto;html=1;entryX=0;entryY=0.5;entryDx=0;entryDy=0;exitX=1;exitY=0.5;exitDx=0;exitDy=0;" edge="1" parent="1" source="mVHBGagMHQVWid7Squ9W-3" target="mVHBGagMHQVWid7Squ9W-37">
          <mxGeometry relative="1" as="geometry" />
        </mxCell>
        <mxCell id="mVHBGagMHQVWid7Squ9W-2" value="Landing Page" style="swimlane;fontStyle=0;childLayout=stackLayout;horizontal=1;startSize=30;horizontalStack=0;resizeParent=1;resizeParentMax=0;resizeLast=0;collapsible=1;marginBottom=0;whiteSpace=wrap;html=1;" vertex="1" parent="1">
          <mxGeometry x="510" y="72" width="210" height="310" as="geometry">
            <mxRectangle x="80" y="420" width="110" height="30" as="alternateBounds" />
          </mxGeometry>
        </mxCell>
        <mxCell id="mVHBGagMHQVWid7Squ9W-6" value="Logo on left" style="text;strokeColor=none;fillColor=none;align=left;verticalAlign=middle;spacingLeft=4;spacingRight=4;overflow=hidden;points=[[0,0.5],[1,0.5]];portConstraint=eastwest;rotatable=0;whiteSpace=wrap;html=1;" vertex="1" parent="mVHBGagMHQVWid7Squ9W-2">
          <mxGeometry y="30" width="210" height="30" as="geometry" />
        </mxCell>
        <mxCell id="mVHBGagMHQVWid7Squ9W-3" value="Login / signin Button&lt;br&gt;&lt;span style=&quot;white-space: pre;&quot;&gt;&#x9;&lt;/span&gt;admin login&lt;br&gt;&lt;span style=&quot;white-space: pre;&quot;&gt;&#x9;&lt;/span&gt;staff login&lt;br&gt;&lt;span style=&quot;white-space: pre;&quot;&gt;&#x9;&lt;/span&gt;mess admin login" style="text;strokeColor=none;fillColor=none;align=left;verticalAlign=middle;spacingLeft=4;spacingRight=4;overflow=hidden;points=[[0,0.5],[1,0.5]];portConstraint=eastwest;rotatable=0;whiteSpace=wrap;html=1;" vertex="1" parent="mVHBGagMHQVWid7Squ9W-2">
          <mxGeometry y="60" width="210" height="70" as="geometry" />
        </mxCell>
        <mxCell id="mVHBGagMHQVWid7Squ9W-4" value="Sign Up button" style="text;strokeColor=none;fillColor=none;align=left;verticalAlign=middle;spacingLeft=4;spacingRight=4;overflow=hidden;points=[[0,0.5],[1,0.5]];portConstraint=eastwest;rotatable=0;whiteSpace=wrap;html=1;" vertex="1" parent="mVHBGagMHQVWid7Squ9W-2">
          <mxGeometry y="130" width="210" height="30" as="geometry" />
        </mxCell>
        <mxCell id="mVHBGagMHQVWid7Squ9W-5" value="About /&amp;nbsp; contact" style="text;strokeColor=none;fillColor=none;align=left;verticalAlign=middle;spacingLeft=4;spacingRight=4;overflow=hidden;points=[[0,0.5],[1,0.5]];portConstraint=eastwest;rotatable=0;whiteSpace=wrap;html=1;" vertex="1" parent="mVHBGagMHQVWid7Squ9W-2">
          <mxGeometry y="160" width="210" height="30" as="geometry" />
        </mxCell>
        <mxCell id="mVHBGagMHQVWid7Squ9W-8" value="Content:&lt;br&gt;&lt;span style=&quot;white-space: pre;&quot;&gt;&#x9;&lt;/span&gt;Summary&lt;br&gt;&lt;span style=&quot;white-space: pre;&quot;&gt;&#x9;&lt;/span&gt;Features provided&lt;br&gt;&lt;span style=&quot;white-space: pre;&quot;&gt;&#x9;&lt;/span&gt;Vision" style="text;strokeColor=none;fillColor=none;align=left;verticalAlign=middle;spacingLeft=4;spacingRight=4;overflow=hidden;points=[[0,0.5],[1,0.5]];portConstraint=eastwest;rotatable=0;whiteSpace=wrap;html=1;" vertex="1" parent="mVHBGagMHQVWid7Squ9W-2">
          <mxGeometry y="190" width="210" height="90" as="geometry" />
        </mxCell>
        <mxCell id="mVHBGagMHQVWid7Squ9W-7" value="Copyright at bottom" style="text;strokeColor=none;fillColor=none;align=left;verticalAlign=middle;spacingLeft=4;spacingRight=4;overflow=hidden;points=[[0,0.5],[1,0.5]];portConstraint=eastwest;rotatable=0;whiteSpace=wrap;html=1;" vertex="1" parent="mVHBGagMHQVWid7Squ9W-2">
          <mxGeometry y="280" width="210" height="30" as="geometry" />
        </mxCell>
        <mxCell id="mVHBGagMHQVWid7Squ9W-9" value="Staff Login&amp;nbsp;/ signup" style="swimlane;fontStyle=0;childLayout=stackLayout;horizontal=1;startSize=30;horizontalStack=0;resizeParent=1;resizeParentMax=0;resizeLast=0;collapsible=1;marginBottom=0;whiteSpace=wrap;html=1;" vertex="1" parent="1">
          <mxGeometry x="769" y="352" width="140" height="120" as="geometry" />
        </mxCell>
        <mxCell id="mVHBGagMHQVWid7Squ9W-10" value="Item 1" style="text;strokeColor=none;fillColor=none;align=left;verticalAlign=middle;spacingLeft=4;spacingRight=4;overflow=hidden;points=[[0,0.5],[1,0.5]];portConstraint=eastwest;rotatable=0;whiteSpace=wrap;html=1;" vertex="1" parent="mVHBGagMHQVWid7Squ9W-9">
          <mxGeometry y="30" width="140" height="30" as="geometry" />
        </mxCell>
        <mxCell id="mVHBGagMHQVWid7Squ9W-11" value="Item 2" style="text;strokeColor=none;fillColor=none;align=left;verticalAlign=middle;spacingLeft=4;spacingRight=4;overflow=hidden;points=[[0,0.5],[1,0.5]];portConstraint=eastwest;rotatable=0;whiteSpace=wrap;html=1;" vertex="1" parent="mVHBGagMHQVWid7Squ9W-9">
          <mxGeometry y="60" width="140" height="30" as="geometry" />
        </mxCell>
        <mxCell id="mVHBGagMHQVWid7Squ9W-12" value="Item 3" style="text;strokeColor=none;fillColor=none;align=left;verticalAlign=middle;spacingLeft=4;spacingRight=4;overflow=hidden;points=[[0,0.5],[1,0.5]];portConstraint=eastwest;rotatable=0;whiteSpace=wrap;html=1;" vertex="1" parent="mVHBGagMHQVWid7Squ9W-9">
          <mxGeometry y="90" width="140" height="30" as="geometry" />
        </mxCell>
        <mxCell id="mVHBGagMHQVWid7Squ9W-13" value="Admin Login / signup&lt;br&gt;" style="swimlane;fontStyle=0;childLayout=stackLayout;horizontal=1;startSize=30;horizontalStack=0;resizeParent=1;resizeParentMax=0;resizeLast=0;collapsible=1;marginBottom=0;whiteSpace=wrap;html=1;" vertex="1" parent="1">
          <mxGeometry x="770" y="167" width="140" height="120" as="geometry" />
        </mxCell>
        <mxCell id="mVHBGagMHQVWid7Squ9W-14" value="Item 1" style="text;strokeColor=none;fillColor=none;align=left;verticalAlign=middle;spacingLeft=4;spacingRight=4;overflow=hidden;points=[[0,0.5],[1,0.5]];portConstraint=eastwest;rotatable=0;whiteSpace=wrap;html=1;" vertex="1" parent="mVHBGagMHQVWid7Squ9W-13">
          <mxGeometry y="30" width="140" height="30" as="geometry" />
        </mxCell>
        <mxCell id="mVHBGagMHQVWid7Squ9W-15" value="Item 2" style="text;strokeColor=none;fillColor=none;align=left;verticalAlign=middle;spacingLeft=4;spacingRight=4;overflow=hidden;points=[[0,0.5],[1,0.5]];portConstraint=eastwest;rotatable=0;whiteSpace=wrap;html=1;" vertex="1" parent="mVHBGagMHQVWid7Squ9W-13">
          <mxGeometry y="60" width="140" height="30" as="geometry" />
        </mxCell>
        <mxCell id="mVHBGagMHQVWid7Squ9W-16" value="Item 3" style="text;strokeColor=none;fillColor=none;align=left;verticalAlign=middle;spacingLeft=4;spacingRight=4;overflow=hidden;points=[[0,0.5],[1,0.5]];portConstraint=eastwest;rotatable=0;whiteSpace=wrap;html=1;" vertex="1" parent="mVHBGagMHQVWid7Squ9W-13">
          <mxGeometry y="90" width="140" height="30" as="geometry" />
        </mxCell>
        <mxCell id="mVHBGagMHQVWid7Squ9W-17" value="User Authentication" style="ellipse;whiteSpace=wrap;html=1;aspect=fixed;" vertex="1" parent="1">
          <mxGeometry x="1000" y="157" width="140" height="140" as="geometry" />
        </mxCell>
        <mxCell id="mVHBGagMHQVWid7Squ9W-22" style="edgeStyle=orthogonalEdgeStyle;rounded=0;orthogonalLoop=1;jettySize=auto;html=1;exitX=1;exitY=0.5;exitDx=0;exitDy=0;" edge="1" parent="1" source="mVHBGagMHQVWid7Squ9W-8" target="mVHBGagMHQVWid7Squ9W-9">
          <mxGeometry relative="1" as="geometry">
            <mxPoint x="767" y="409" as="targetPoint" />
          </mxGeometry>
        </mxCell>
        <mxCell id="mVHBGagMHQVWid7Squ9W-23" style="edgeStyle=orthogonalEdgeStyle;rounded=0;orthogonalLoop=1;jettySize=auto;html=1;entryX=0.003;entryY=0.546;entryDx=0;entryDy=0;entryPerimeter=0;" edge="1" parent="1" source="mVHBGagMHQVWid7Squ9W-15" target="mVHBGagMHQVWid7Squ9W-17">
          <mxGeometry relative="1" as="geometry" />
        </mxCell>
        <mxCell id="mVHBGagMHQVWid7Squ9W-28" value="Dashboard" style="swimlane;fontStyle=0;childLayout=stackLayout;horizontal=1;startSize=30;horizontalStack=0;resizeParent=1;resizeParentMax=0;resizeLast=0;collapsible=1;marginBottom=0;whiteSpace=wrap;html=1;" vertex="1" parent="1">
          <mxGeometry x="1475" y="117" width="240" height="270" as="geometry" />
        </mxCell>
        <mxCell id="mVHBGagMHQVWid7Squ9W-29" value="Overview metrics" style="text;strokeColor=none;fillColor=none;align=left;verticalAlign=middle;spacingLeft=4;spacingRight=4;overflow=hidden;points=[[0,0.5],[1,0.5]];portConstraint=eastwest;rotatable=0;whiteSpace=wrap;html=1;" vertex="1" parent="mVHBGagMHQVWid7Squ9W-28">
          <mxGeometry y="30" width="240" height="30" as="geometry" />
        </mxCell>
        <mxCell id="mVHBGagMHQVWid7Squ9W-30" value="quick actions" style="text;strokeColor=none;fillColor=none;align=left;verticalAlign=middle;spacingLeft=4;spacingRight=4;overflow=hidden;points=[[0,0.5],[1,0.5]];portConstraint=eastwest;rotatable=0;whiteSpace=wrap;html=1;" vertex="1" parent="mVHBGagMHQVWid7Squ9W-28">
          <mxGeometry y="60" width="240" height="30" as="geometry" />
        </mxCell>
        <mxCell id="mVHBGagMHQVWid7Squ9W-31" value="task management" style="text;strokeColor=none;fillColor=none;align=left;verticalAlign=middle;spacingLeft=4;spacingRight=4;overflow=hidden;points=[[0,0.5],[1,0.5]];portConstraint=eastwest;rotatable=0;whiteSpace=wrap;html=1;" vertex="1" parent="mVHBGagMHQVWid7Squ9W-28">
          <mxGeometry y="90" width="240" height="30" as="geometry" />
        </mxCell>
        <mxCell id="mVHBGagMHQVWid7Squ9W-90" value="announcement" style="text;strokeColor=none;fillColor=none;align=left;verticalAlign=middle;spacingLeft=4;spacingRight=4;overflow=hidden;points=[[0,0.5],[1,0.5]];portConstraint=eastwest;rotatable=0;whiteSpace=wrap;html=1;" vertex="1" parent="mVHBGagMHQVWid7Squ9W-28">
          <mxGeometry y="120" width="240" height="30" as="geometry" />
        </mxCell>
        <mxCell id="mVHBGagMHQVWid7Squ9W-91" value="task management" style="text;strokeColor=none;fillColor=none;align=left;verticalAlign=middle;spacingLeft=4;spacingRight=4;overflow=hidden;points=[[0,0.5],[1,0.5]];portConstraint=eastwest;rotatable=0;whiteSpace=wrap;html=1;" vertex="1" parent="mVHBGagMHQVWid7Squ9W-28">
          <mxGeometry y="150" width="240" height="30" as="geometry" />
        </mxCell>
        <mxCell id="mVHBGagMHQVWid7Squ9W-88" value="task management" style="text;strokeColor=none;fillColor=none;align=left;verticalAlign=middle;spacingLeft=4;spacingRight=4;overflow=hidden;points=[[0,0.5],[1,0.5]];portConstraint=eastwest;rotatable=0;whiteSpace=wrap;html=1;" vertex="1" parent="mVHBGagMHQVWid7Squ9W-28">
          <mxGeometry y="180" width="240" height="30" as="geometry" />
        </mxCell>
        <mxCell id="mVHBGagMHQVWid7Squ9W-89" value="task management" style="text;strokeColor=none;fillColor=none;align=left;verticalAlign=middle;spacingLeft=4;spacingRight=4;overflow=hidden;points=[[0,0.5],[1,0.5]];portConstraint=eastwest;rotatable=0;whiteSpace=wrap;html=1;" vertex="1" parent="mVHBGagMHQVWid7Squ9W-28">
          <mxGeometry y="210" width="240" height="30" as="geometry" />
        </mxCell>
        <mxCell id="mVHBGagMHQVWid7Squ9W-87" value="task management" style="text;strokeColor=none;fillColor=none;align=left;verticalAlign=middle;spacingLeft=4;spacingRight=4;overflow=hidden;points=[[0,0.5],[1,0.5]];portConstraint=eastwest;rotatable=0;whiteSpace=wrap;html=1;" vertex="1" parent="mVHBGagMHQVWid7Squ9W-28">
          <mxGeometry y="240" width="240" height="30" as="geometry" />
        </mxCell>
        <mxCell id="mVHBGagMHQVWid7Squ9W-33" style="edgeStyle=orthogonalEdgeStyle;rounded=0;orthogonalLoop=1;jettySize=auto;html=1;entryX=0.5;entryY=1;entryDx=0;entryDy=0;" edge="1" parent="1" source="mVHBGagMHQVWid7Squ9W-11" target="mVHBGagMHQVWid7Squ9W-17">
          <mxGeometry relative="1" as="geometry" />
        </mxCell>
        <mxCell id="mVHBGagMHQVWid7Squ9W-34" value="Mess Admin Login&amp;nbsp;/ signup" style="swimlane;fontStyle=0;childLayout=stackLayout;horizontal=1;startSize=30;horizontalStack=0;resizeParent=1;resizeParentMax=0;resizeLast=0;collapsible=1;marginBottom=0;whiteSpace=wrap;html=1;" vertex="1" parent="1">
          <mxGeometry x="769" y="12" width="140" height="120" as="geometry" />
        </mxCell>
        <mxCell id="mVHBGagMHQVWid7Squ9W-35" value="Item 1" style="text;strokeColor=none;fillColor=none;align=left;verticalAlign=middle;spacingLeft=4;spacingRight=4;overflow=hidden;points=[[0,0.5],[1,0.5]];portConstraint=eastwest;rotatable=0;whiteSpace=wrap;html=1;" vertex="1" parent="mVHBGagMHQVWid7Squ9W-34">
          <mxGeometry y="30" width="140" height="30" as="geometry" />
        </mxCell>
        <mxCell id="mVHBGagMHQVWid7Squ9W-36" value="Item 2" style="text;strokeColor=none;fillColor=none;align=left;verticalAlign=middle;spacingLeft=4;spacingRight=4;overflow=hidden;points=[[0,0.5],[1,0.5]];portConstraint=eastwest;rotatable=0;whiteSpace=wrap;html=1;" vertex="1" parent="mVHBGagMHQVWid7Squ9W-34">
          <mxGeometry y="60" width="140" height="30" as="geometry" />
        </mxCell>
        <mxCell id="mVHBGagMHQVWid7Squ9W-37" value="Item 3" style="text;strokeColor=none;fillColor=none;align=left;verticalAlign=middle;spacingLeft=4;spacingRight=4;overflow=hidden;points=[[0,0.5],[1,0.5]];portConstraint=eastwest;rotatable=0;whiteSpace=wrap;html=1;" vertex="1" parent="mVHBGagMHQVWid7Squ9W-34">
          <mxGeometry y="90" width="140" height="30" as="geometry" />
        </mxCell>
        <mxCell id="mVHBGagMHQVWid7Squ9W-40" value="BACKEND" style="swimlane;fontStyle=0;childLayout=stackLayout;horizontal=1;startSize=30;horizontalStack=0;resizeParent=1;resizeParentMax=0;resizeLast=0;collapsible=1;marginBottom=0;whiteSpace=wrap;html=1;" vertex="1" parent="1">
          <mxGeometry x="470" y="-893" width="1780" height="560" as="geometry" />
        </mxCell>
        <mxCell id="mVHBGagMHQVWid7Squ9W-49" style="edgeStyle=orthogonalEdgeStyle;rounded=0;orthogonalLoop=1;jettySize=auto;html=1;entryX=0.5;entryY=0;entryDx=0;entryDy=0;" edge="1" parent="1" source="mVHBGagMHQVWid7Squ9W-36" target="mVHBGagMHQVWid7Squ9W-17">
          <mxGeometry relative="1" as="geometry" />
        </mxCell>
        <mxCell id="mVHBGagMHQVWid7Squ9W-51" value="FRONTEND" style="swimlane;fontStyle=0;childLayout=stackLayout;horizontal=1;startSize=30;horizontalStack=0;resizeParent=1;resizeParentMax=0;resizeLast=0;collapsible=1;marginBottom=0;whiteSpace=wrap;html=1;" vertex="1" parent="1">
          <mxGeometry x="460" y="-113" width="1550" height="630" as="geometry" />
        </mxCell>
        <mxCell id="mVHBGagMHQVWid7Squ9W-55" style="edgeStyle=orthogonalEdgeStyle;rounded=0;orthogonalLoop=1;jettySize=auto;html=1;exitX=1;exitY=0.5;exitDx=0;exitDy=0;entryX=0;entryY=0.5;entryDx=0;entryDy=0;" edge="1" parent="1" source="mVHBGagMHQVWid7Squ9W-5" target="mVHBGagMHQVWid7Squ9W-14">
          <mxGeometry relative="1" as="geometry" />
        </mxCell>
        <mxCell id="mVHBGagMHQVWid7Squ9W-57" value="Server" style="swimlane;fontStyle=0;childLayout=stackLayout;horizontal=1;startSize=30;horizontalStack=0;resizeParent=1;resizeParentMax=0;resizeLast=0;collapsible=1;marginBottom=0;whiteSpace=wrap;html=1;" vertex="1" parent="1">
          <mxGeometry x="1250" y="-683" width="160" height="170" as="geometry" />
        </mxCell>
        <mxCell id="mVHBGagMHQVWid7Squ9W-58" value="Routes&lt;br&gt;&lt;span style=&quot;white-space: pre;&quot;&gt;&lt;span style=&quot;white-space: pre;&quot;&gt;&#x9;&lt;/span&gt;authentication&lt;br/&gt;&lt;span style=&quot;white-space: pre;&quot;&gt;&#x9;&lt;/span&gt;users&#x9;&lt;/span&gt;" style="text;strokeColor=none;fillColor=none;align=left;verticalAlign=middle;spacingLeft=4;spacingRight=4;overflow=hidden;points=[[0,0.5],[1,0.5]];portConstraint=eastwest;rotatable=0;whiteSpace=wrap;html=1;" vertex="1" parent="mVHBGagMHQVWid7Squ9W-57">
          <mxGeometry y="30" width="160" height="70" as="geometry" />
        </mxCell>
        <mxCell id="mVHBGagMHQVWid7Squ9W-59" value="Connection to database service" style="text;strokeColor=none;fillColor=none;align=left;verticalAlign=middle;spacingLeft=4;spacingRight=4;overflow=hidden;points=[[0,0.5],[1,0.5]];portConstraint=eastwest;rotatable=0;whiteSpace=wrap;html=1;" vertex="1" parent="mVHBGagMHQVWid7Squ9W-57">
          <mxGeometry y="100" width="160" height="40" as="geometry" />
        </mxCell>
        <mxCell id="mVHBGagMHQVWid7Squ9W-60" value="others" style="text;strokeColor=none;fillColor=none;align=left;verticalAlign=middle;spacingLeft=4;spacingRight=4;overflow=hidden;points=[[0,0.5],[1,0.5]];portConstraint=eastwest;rotatable=0;whiteSpace=wrap;html=1;" vertex="1" parent="mVHBGagMHQVWid7Squ9W-57">
          <mxGeometry y="140" width="160" height="30" as="geometry" />
        </mxCell>
        <mxCell id="mVHBGagMHQVWid7Squ9W-66" style="edgeStyle=orthogonalEdgeStyle;rounded=0;orthogonalLoop=1;jettySize=auto;html=1;exitX=0.5;exitY=1;exitDx=0;exitDy=0;entryX=0.5;entryY=0;entryDx=0;entryDy=0;" edge="1" parent="1" source="mVHBGagMHQVWid7Squ9W-61" target="mVHBGagMHQVWid7Squ9W-64">
          <mxGeometry relative="1" as="geometry" />
        </mxCell>
        <mxCell id="mVHBGagMHQVWid7Squ9W-67" style="edgeStyle=orthogonalEdgeStyle;rounded=0;orthogonalLoop=1;jettySize=auto;html=1;exitX=0.5;exitY=1;exitDx=0;exitDy=0;" edge="1" parent="1" source="mVHBGagMHQVWid7Squ9W-61" target="mVHBGagMHQVWid7Squ9W-63">
          <mxGeometry relative="1" as="geometry" />
        </mxCell>
        <mxCell id="mVHBGagMHQVWid7Squ9W-68" style="edgeStyle=orthogonalEdgeStyle;rounded=0;orthogonalLoop=1;jettySize=auto;html=1;exitX=0.5;exitY=1;exitDx=0;exitDy=0;" edge="1" parent="1" source="mVHBGagMHQVWid7Squ9W-61" target="mVHBGagMHQVWid7Squ9W-62">
          <mxGeometry relative="1" as="geometry" />
        </mxCell>
        <mxCell id="mVHBGagMHQVWid7Squ9W-61" value="staff db" style="shape=datastore;whiteSpace=wrap;html=1;" vertex="1" parent="1">
          <mxGeometry x="700" y="-803" width="210" height="200" as="geometry" />
        </mxCell>
        <mxCell id="mVHBGagMHQVWid7Squ9W-62" value="backup" style="shape=datastore;whiteSpace=wrap;html=1;" vertex="1" parent="1">
          <mxGeometry x="940" y="-573" width="110" height="100" as="geometry" />
        </mxCell>
        <mxCell id="mVHBGagMHQVWid7Squ9W-63" value="metrics" style="shape=datastore;whiteSpace=wrap;html=1;" vertex="1" parent="1">
          <mxGeometry x="750" y="-493" width="110" height="110" as="geometry" />
        </mxCell>
        <mxCell id="mVHBGagMHQVWid7Squ9W-64" value="Users" style="shape=datastore;whiteSpace=wrap;html=1;" vertex="1" parent="1">
          <mxGeometry x="562.5" y="-573" width="105" height="110" as="geometry" />
        </mxCell>
        <mxCell id="mVHBGagMHQVWid7Squ9W-69" style="edgeStyle=orthogonalEdgeStyle;rounded=0;orthogonalLoop=1;jettySize=auto;html=1;exitX=0;exitY=0.5;exitDx=0;exitDy=0;entryX=1;entryY=0.35;entryDx=0;entryDy=0;entryPerimeter=0;" edge="1" parent="1" source="mVHBGagMHQVWid7Squ9W-59" target="mVHBGagMHQVWid7Squ9W-61">
          <mxGeometry relative="1" as="geometry" />
        </mxCell>
        <mxCell id="mVHBGagMHQVWid7Squ9W-80" style="edgeStyle=orthogonalEdgeStyle;rounded=0;orthogonalLoop=1;jettySize=auto;html=1;exitX=1;exitY=0.5;exitDx=0;exitDy=0;entryX=0;entryY=0.5;entryDx=0;entryDy=0;" edge="1" parent="1" source="mVHBGagMHQVWid7Squ9W-71" target="mVHBGagMHQVWid7Squ9W-79">
          <mxGeometry relative="1" as="geometry" />
        </mxCell>
        <mxCell id="mVHBGagMHQVWid7Squ9W-71" value="Authentication route" style="label;whiteSpace=wrap;html=1;align=center;verticalAlign=bottom;spacingLeft=0;spacingBottom=4;imageAlign=center;imageVerticalAlign=top;image=img/clipart/Gear_128x128.png" vertex="1" parent="1">
          <mxGeometry x="1850" y="-733" width="120" height="80" as="geometry" />
        </mxCell>
        <mxCell id="mVHBGagMHQVWid7Squ9W-81" style="edgeStyle=orthogonalEdgeStyle;rounded=0;orthogonalLoop=1;jettySize=auto;html=1;exitX=1;exitY=0.5;exitDx=0;exitDy=0;entryX=0;entryY=0.5;entryDx=0;entryDy=0;" edge="1" parent="1" source="mVHBGagMHQVWid7Squ9W-72" target="mVHBGagMHQVWid7Squ9W-79">
          <mxGeometry relative="1" as="geometry" />
        </mxCell>
        <mxCell id="mVHBGagMHQVWid7Squ9W-72" value="Users route" style="label;whiteSpace=wrap;html=1;align=center;verticalAlign=bottom;spacingLeft=0;spacingBottom=4;imageAlign=center;imageVerticalAlign=top;image=img/clipart/Gear_128x128.png" vertex="1" parent="1">
          <mxGeometry x="1850" y="-533" width="120" height="80" as="geometry" />
        </mxCell>
        <mxCell id="mVHBGagMHQVWid7Squ9W-77" style="edgeStyle=orthogonalEdgeStyle;rounded=0;orthogonalLoop=1;jettySize=auto;html=1;exitX=1;exitY=0.5;exitDx=0;exitDy=0;" edge="1" parent="1" source="mVHBGagMHQVWid7Squ9W-75" target="mVHBGagMHQVWid7Squ9W-71">
          <mxGeometry relative="1" as="geometry" />
        </mxCell>
        <mxCell id="mVHBGagMHQVWid7Squ9W-78" style="edgeStyle=orthogonalEdgeStyle;rounded=0;orthogonalLoop=1;jettySize=auto;html=1;exitX=1;exitY=0.5;exitDx=0;exitDy=0;entryX=0;entryY=0.5;entryDx=0;entryDy=0;" edge="1" parent="1" source="mVHBGagMHQVWid7Squ9W-75" target="mVHBGagMHQVWid7Squ9W-72">
          <mxGeometry relative="1" as="geometry" />
        </mxCell>
        <mxCell id="mVHBGagMHQVWid7Squ9W-75" value="Middleware for tokenization" style="label;whiteSpace=wrap;html=1;align=center;verticalAlign=bottom;spacingLeft=0;spacingBottom=4;imageAlign=center;imageVerticalAlign=top;image=img/clipart/Gear_128x128.png" vertex="1" parent="1">
          <mxGeometry x="1530" y="-653" width="130" height="100" as="geometry" />
        </mxCell>
        <mxCell id="mVHBGagMHQVWid7Squ9W-76" style="edgeStyle=orthogonalEdgeStyle;rounded=0;orthogonalLoop=1;jettySize=auto;html=1;exitX=1;exitY=0.5;exitDx=0;exitDy=0;" edge="1" parent="1" source="mVHBGagMHQVWid7Squ9W-58" target="mVHBGagMHQVWid7Squ9W-75">
          <mxGeometry relative="1" as="geometry" />
        </mxCell>
        <mxCell id="mVHBGagMHQVWid7Squ9W-86" style="edgeStyle=orthogonalEdgeStyle;rounded=0;orthogonalLoop=1;jettySize=auto;html=1;exitX=0.5;exitY=1;exitDx=0;exitDy=0;entryX=0.5;entryY=0;entryDx=0;entryDy=0;" edge="1" parent="1" source="mVHBGagMHQVWid7Squ9W-79" target="mVHBGagMHQVWid7Squ9W-28">
          <mxGeometry relative="1" as="geometry" />
        </mxCell>
        <mxCell id="mVHBGagMHQVWid7Squ9W-79" value="APIs" style="ellipse;whiteSpace=wrap;html=1;aspect=fixed;" vertex="1" parent="1">
          <mxGeometry x="2080" y="-633" width="110" height="110" as="geometry" />
        </mxCell>
        <mxCell id="mVHBGagMHQVWid7Squ9W-83" style="edgeStyle=orthogonalEdgeStyle;rounded=0;orthogonalLoop=1;jettySize=auto;html=1;exitX=1;exitY=0.5;exitDx=0;exitDy=0;entryX=0.5;entryY=1;entryDx=0;entryDy=0;entryPerimeter=0;" edge="1" parent="1" source="mVHBGagMHQVWid7Squ9W-17" target="mVHBGagMHQVWid7Squ9W-60">
          <mxGeometry relative="1" as="geometry" />
        </mxCell>
      </root>
    </mxGraphModel>
  </diagram>
</mxfile>
